<svg width="38" height="38" viewBox="0 0 38 38" fill="none" xmlns="http://www.w3.org/2000/svg">
<circle cx="19" cy="19" r="19" fill="#1E1E1E"/>
<path d="M8.60594 16.676C8.60594 17.084 8.62994 17.408 8.67794 17.648C8.72594 17.888 8.82994 18.024 8.98994 18.056H8.97794L9.08594 18.068C9.28594 18.068 9.43394 18.028 9.52994 17.948C9.62594 17.868 9.68594 17.764 9.70994 17.636C9.74194 17.508 9.76994 17.328 9.79394 17.096C9.80994 16.856 9.83794 16.636 9.87794 16.436C10.0459 16.46 10.2099 16.472 10.3699 16.472L10.9339 16.46C11.2379 16.46 11.4819 16.484 11.6659 16.532C11.6819 16.572 11.6899 16.608 11.6899 16.64C11.6979 16.664 11.7099 16.696 11.7259 16.736L11.9059 16.772C12.0179 17.084 12.0739 17.404 12.0739 17.732C12.0739 18.292 11.9419 18.784 11.6779 19.208C11.4219 19.632 11.0619 19.956 10.5979 20.18C10.1339 20.412 9.60594 20.528 9.01394 20.528C8.59794 20.528 8.19794 20.448 7.81394 20.288C7.42994 20.128 7.10594 19.9 6.84194 19.604C6.58594 19.3 6.43794 18.948 6.39794 18.548C6.35794 17.748 6.33794 16.888 6.33794 15.968L6.34994 14.132C6.35794 14.012 6.36194 13.824 6.36194 13.568L6.34994 13.436C6.34994 13.164 6.40194 12.92 6.50594 12.704V12.716C6.68994 12.204 6.96194 11.82 7.32194 11.564C7.68994 11.3 8.18594 11.168 8.80994 11.168C9.36194 11.168 9.89394 11.316 10.4059 11.612C10.9179 11.908 11.3299 12.3 11.6419 12.788C11.9539 13.268 12.1099 13.772 12.1099 14.3C12.1099 14.612 12.0459 14.944 11.9179 15.296C11.6859 15.352 11.4339 15.38 11.1619 15.38C10.8099 15.38 10.4139 15.336 9.97394 15.248L9.94994 15.056C9.83794 15.04 9.76994 15.012 9.74594 14.972C9.72194 14.932 9.70594 14.856 9.69794 14.744C9.69794 14.624 9.69394 14.536 9.68594 14.48C9.67794 14.416 9.66994 14.308 9.66194 14.156C9.66194 13.996 9.62994 13.876 9.56594 13.796C9.50194 13.708 9.39394 13.664 9.24194 13.664C9.15394 13.664 9.05394 13.68 8.94194 13.712C8.83794 13.744 8.76594 13.78 8.72594 13.82C8.70994 13.836 8.68594 14.04 8.65394 14.432C8.62194 14.816 8.60594 15.36 8.60594 16.064V16.676ZM9.04994 13.304C9.26594 13.304 9.42594 13.36 9.52994 13.472C9.63394 13.576 9.70194 13.704 9.73394 13.856C9.76594 14.008 9.78994 14.212 9.80594 14.468C9.80594 14.516 9.80994 14.584 9.81794 14.672C9.82594 14.76 9.83394 14.836 9.84194 14.9C10.1939 14.98 10.5539 15.02 10.9219 15.02C11.1459 15.02 11.3699 14.996 11.5939 14.948C11.6979 14.668 11.7499 14.372 11.7499 14.06C11.7499 13.556 11.6139 13.092 11.3419 12.668C11.0699 12.244 10.7059 11.908 10.2499 11.66C9.80194 11.412 9.32194 11.288 8.80994 11.288C8.26594 11.288 7.80994 11.404 7.44194 11.636C7.07394 11.86 6.79794 12.232 6.61394 12.752C6.51794 12.984 6.46994 13.204 6.46994 13.412C6.46994 13.484 6.47394 13.532 6.48194 13.556C6.48194 13.804 6.47794 13.988 6.46994 14.108L6.45794 15.968C6.45794 16.88 6.47794 17.736 6.51794 18.536C6.56594 19.08 6.80994 19.488 7.24994 19.76C7.68994 20.032 8.19794 20.168 8.77394 20.168C9.33394 20.168 9.83794 20.06 10.2859 19.844C10.7339 19.62 11.0819 19.308 11.3299 18.908C11.5859 18.5 11.7139 18.028 11.7139 17.492C11.7139 17.188 11.6699 16.904 11.5819 16.64C11.4299 16.6 11.2219 16.58 10.9579 16.58L10.3219 16.592C10.2339 16.592 10.1179 16.584 9.97394 16.568C9.94194 16.68 9.91794 16.86 9.90194 17.108C9.88594 17.34 9.85794 17.532 9.81794 17.684C9.78594 17.828 9.70994 17.948 9.58994 18.044C9.47794 18.14 9.30594 18.188 9.07394 18.188C8.72994 18.188 8.50194 18.012 8.38994 17.66C8.28594 17.3 8.23394 16.832 8.23394 16.256V15.824C8.23394 15.072 8.25394 14.504 8.29394 14.12C8.33394 13.736 8.36994 13.528 8.40194 13.496C8.46594 13.432 8.56194 13.384 8.68994 13.352C8.81794 13.32 8.93794 13.304 9.04994 13.304ZM12.3773 14.48C12.4973 14.224 12.7333 14.032 13.0853 13.904C13.4453 13.776 13.8493 13.712 14.2973 13.712C14.3613 13.72 14.5093 13.724 14.7413 13.724L15.0293 13.712C15.3333 13.712 15.6293 13.76 15.9173 13.856C16.2053 13.952 16.4453 14.092 16.6373 14.276H16.6253C16.6493 14.308 16.6853 14.352 16.7333 14.408C16.7813 14.456 16.8253 14.492 16.8653 14.516L16.8533 14.504C17.0693 14.648 17.2133 14.936 17.2853 15.368C17.3653 15.8 17.4053 16.336 17.4053 16.976C17.4053 17.544 17.3693 18.132 17.2973 18.74C17.2253 19.348 17.1253 19.724 16.9973 19.868C16.8293 20.108 16.6013 20.272 16.3133 20.36C16.0253 20.448 15.6893 20.492 15.3053 20.492C14.8973 20.492 14.5653 20.48 14.3093 20.456C14.0613 20.432 13.8133 20.364 13.5653 20.252C13.3253 20.148 13.0933 19.98 12.8693 19.748L12.7613 19.64C12.5133 19.408 12.3453 19.112 12.2573 18.752C12.1693 18.384 12.1253 17.956 12.1253 17.468V17.036L12.1373 16.628C12.1373 16.532 12.1333 16.44 12.1253 16.352C12.1173 16.264 12.1133 16.184 12.1133 16.112C12.1133 15.768 12.1213 15.508 12.1373 15.332C12.1533 15.156 12.2133 14.944 12.3173 14.696H12.3053C12.3133 14.648 12.3213 14.6 12.3293 14.552C12.3453 14.504 12.3613 14.472 12.3773 14.456V14.468L12.3653 14.504L12.3773 14.48ZM12.2453 16.604V17.492C12.2453 18.196 12.3613 18.78 12.5933 19.244C12.8333 19.7 13.2613 19.98 13.8773 20.084L14.4413 20.096C14.7133 20.112 14.9253 20.12 15.0773 20.12C15.4533 20.12 15.7733 20.08 16.0373 20C16.3013 19.92 16.5093 19.772 16.6613 19.556C16.7973 19.42 16.8853 19.116 16.9253 18.644C16.9733 18.172 17.0133 17.536 17.0453 16.736C17.0453 16.664 17.0373 16.408 17.0213 15.968C17.0053 15.52 16.9573 15.164 16.8773 14.9C16.8053 14.628 16.6973 14.448 16.5533 14.36C16.1933 14.008 15.6693 13.832 14.9813 13.832L14.5253 13.844C14.4213 13.844 14.3413 13.84 14.2853 13.832C13.8773 13.832 13.5013 13.892 13.1573 14.012C12.8133 14.132 12.5893 14.304 12.4853 14.528C12.3973 14.84 12.3333 15.116 12.2933 15.356C12.2533 15.596 12.2333 15.844 12.2333 16.1L12.2453 16.604ZM14.7053 15.644C15.2653 15.644 15.5453 16.06 15.5453 16.892C15.5453 17.236 15.5293 17.512 15.4973 17.72C15.4653 17.92 15.3813 18.084 15.2453 18.212C15.1093 18.34 14.9013 18.404 14.6213 18.404C14.3813 18.404 14.1853 18.352 14.0333 18.248C13.8813 18.144 13.8053 17.976 13.8053 17.744C13.8133 17.64 13.8173 17.456 13.8173 17.192C13.8173 16.824 13.8253 16.54 13.8413 16.34C13.8653 16.132 13.9133 16 13.9853 15.944C14.1453 15.744 14.3853 15.644 14.7053 15.644ZM14.2973 16.28C14.2333 16.32 14.1933 16.504 14.1773 16.832C14.1693 17.152 14.1653 17.54 14.1653 17.996C14.1653 18.124 14.2053 18.204 14.2853 18.236C14.3653 18.268 14.4773 18.284 14.6213 18.284C15.1093 18.284 15.3533 18.116 15.3533 17.78C15.4013 17.348 15.4253 17.036 15.4253 16.844C15.4253 16.58 15.3933 16.376 15.3293 16.232C15.2733 16.088 15.1373 16.016 14.9213 16.016C14.8733 16.016 14.7853 16.024 14.6573 16.04H14.6693C14.5173 16.08 14.4013 16.152 14.3213 16.256L14.2973 16.28ZM19.3319 14.252C19.3639 14.412 19.4439 14.9 19.5719 15.716C19.6759 16.396 19.7679 16.948 19.8479 17.372L20.0759 16.244C20.2679 15.164 20.4479 14.392 20.6159 13.928C20.7759 13.928 20.9999 13.92 21.2879 13.904C21.5759 13.888 21.7999 13.88 21.9599 13.88H22.1279C22.2639 13.88 22.3799 13.888 22.4759 13.904L22.3919 14.12C22.4319 14.12 22.5399 14.128 22.7159 14.144C22.5079 14.696 22.3319 15.248 22.1879 15.8C22.0519 16.352 21.8959 17.056 21.7199 17.912C21.6879 18.048 21.6159 18.376 21.5039 18.896C21.3919 19.416 21.2719 19.904 21.1439 20.36C20.9039 20.4 20.5839 20.42 20.1839 20.42L19.3799 20.408C19.2119 20.4 18.9799 20.396 18.6839 20.396L18.6479 20.156H18.4439C18.0599 17.764 17.6239 15.66 17.1359 13.844C17.3839 13.884 17.5839 13.904 17.7359 13.904C17.9199 13.904 18.0599 13.9 18.1559 13.892C18.2119 13.892 18.3279 13.892 18.5039 13.892C18.6879 13.892 18.8479 13.9 18.9839 13.916L19.0919 14.012C19.0919 14.076 19.0999 14.116 19.1159 14.132C19.1319 14.148 19.1679 14.156 19.2239 14.156L19.3319 14.252ZM17.8079 14.024H17.6039C17.4759 14.024 17.3759 14.016 17.3039 14C17.7519 15.64 18.1679 17.652 18.5519 20.036C18.7999 20.036 18.9959 20.04 19.1399 20.048L19.9199 20.06C20.2879 20.06 20.5839 20.044 20.8079 20.012C20.9839 19.364 21.1719 18.556 21.3719 17.588C21.5399 16.78 21.6919 16.108 21.8279 15.572C21.9639 15.028 22.1239 14.508 22.3079 14.012L21.9359 14C21.7759 14 21.5599 14.008 21.2879 14.024C21.0319 14.04 20.8359 14.048 20.6999 14.048C20.6199 14.248 20.5479 14.492 20.4839 14.78C20.4199 15.068 20.3599 15.356 20.3039 15.644C20.2479 15.924 20.2119 16.108 20.1959 16.196C20.0279 17.172 19.8839 17.82 19.7639 18.14C19.6599 17.852 19.5639 17.484 19.4759 17.036C19.3959 16.588 19.3039 16.04 19.1999 15.392C19.1439 15 19.0679 14.548 18.9719 14.036C18.7639 14.02 18.6079 14.012 18.5039 14.012L17.8079 14.024ZM24.3961 17.576C24.3961 17.784 24.4081 17.956 24.4321 18.092C24.4641 18.22 24.5241 18.36 24.6121 18.512V18.536C24.7161 18.592 24.8441 18.62 24.9961 18.62C25.1641 18.62 25.3041 18.544 25.4161 18.392C25.5281 18.232 25.5841 17.996 25.5841 17.684V17.564C25.7601 17.58 25.8921 17.588 25.9801 17.588L26.4001 17.576C26.4881 17.568 26.6241 17.564 26.8081 17.564C26.9441 17.564 27.1241 17.584 27.3481 17.624L27.3361 17.828L27.5881 17.864C27.5881 18.728 27.4921 19.348 27.3001 19.724C27.1161 20.1 26.8761 20.324 26.5801 20.396C26.2921 20.476 25.8481 20.516 25.2481 20.516C24.7681 20.516 24.3841 20.48 24.0961 20.408C23.8161 20.344 23.5761 20.192 23.3761 19.952C23.0081 19.648 22.7361 19.212 22.5601 18.644C22.3841 18.076 22.2961 17.46 22.2961 16.796C22.2961 16.02 22.3881 15.384 22.5721 14.888C22.7401 14.504 23.0321 14.212 23.4481 14.012C23.8641 13.804 24.3281 13.7 24.8401 13.7C25.4561 13.7 25.9721 13.832 26.3881 14.096C26.8121 14.36 27.1241 14.716 27.3241 15.164C27.5321 15.604 27.6361 16.088 27.6361 16.616C27.6361 16.664 27.6241 16.868 27.6001 17.228C27.4481 17.268 27.0441 17.304 26.3881 17.336C25.7401 17.368 25.1641 17.384 24.6601 17.384C24.5401 17.384 24.4521 17.38 24.3961 17.372V17.576ZM24.0361 16.988C24.1321 17.012 24.4081 17.024 24.8641 17.024C25.3041 17.024 25.7801 17.012 26.2921 16.988C26.8041 16.956 27.1241 16.924 27.2521 16.892C27.2681 16.652 27.2761 16.48 27.2761 16.376C27.2761 15.576 27.0961 14.952 26.7361 14.504C26.3841 14.048 25.7521 13.82 24.8401 13.82C24.3601 13.82 23.9161 13.92 23.5081 14.12C23.1081 14.312 22.8321 14.58 22.6801 14.924C22.4961 15.42 22.4041 16.084 22.4041 16.916C22.4041 17.748 22.5441 18.468 22.8241 19.076C23.1041 19.684 23.5401 20.032 24.1321 20.12L24.6601 20.132C24.9321 20.148 25.1441 20.156 25.2961 20.156C25.6721 20.156 25.9921 20.116 26.2561 20.036C26.5281 19.956 26.7401 19.808 26.8921 19.592C26.9961 19.504 27.0681 19.32 27.1081 19.04C27.1481 18.752 27.1881 18.312 27.2281 17.72C27.1081 17.696 26.9521 17.684 26.7601 17.684L26.2921 17.696C26.1961 17.704 26.0641 17.708 25.8961 17.708C25.8001 17.708 25.7401 17.704 25.7161 17.696V17.792C25.7161 18.104 25.6441 18.34 25.5001 18.5C25.3641 18.66 25.1961 18.74 24.9961 18.74C24.3801 18.74 24.0601 18.228 24.0361 17.204V16.988ZM25.9561 16.04C25.9561 16.064 25.9281 16.076 25.8721 16.076C25.8321 16.076 25.7521 16.072 25.6321 16.064C25.5121 16.056 25.3681 16.052 25.2001 16.052L24.4201 16.064C24.2681 16.064 24.1681 16.056 24.1201 16.04C24.0721 16.024 24.0481 15.988 24.0481 15.932C24.0481 15.316 24.3881 15.008 25.0681 15.008C25.2201 15.008 25.3601 15.048 25.4881 15.128C25.6321 15.2 25.7441 15.308 25.8241 15.452C25.9121 15.596 25.9561 15.748 25.9561 15.908V16.04ZM25.6681 15.464C25.5641 15.4 25.4441 15.368 25.3081 15.368C25.0281 15.368 24.8241 15.416 24.6961 15.512C24.5761 15.608 24.4921 15.752 24.4441 15.944L24.6721 15.932H25.2001L25.7161 15.944L25.8361 15.956V15.908C25.8361 15.724 25.7841 15.58 25.6801 15.476L25.6681 15.464ZM29.6801 14.12C29.7841 14.136 29.8481 14.152 29.8721 14.168C30.3281 14.024 30.7641 13.952 31.1801 13.952C31.3801 13.952 31.5521 13.964 31.6961 13.988C31.8401 14.004 31.9121 14.02 31.9121 14.036V14.216C32.0721 14.24 32.1521 14.26 32.1521 14.276L32.1401 15.296C32.1321 15.432 32.1281 15.608 32.1281 15.824C32.1281 15.952 32.1401 16.196 32.1641 16.556L31.8881 16.46L31.9001 16.472L31.7561 16.424L31.7681 16.436C31.4481 16.356 31.2321 16.308 31.1201 16.292C31.0161 16.276 30.9241 16.268 30.8441 16.268C30.7641 16.268 30.7081 16.268 30.6761 16.268C30.4041 16.268 30.2001 16.324 30.0641 16.436C29.9361 16.54 29.8721 16.732 29.8721 17.012C29.9041 17.996 29.9201 19.044 29.9201 20.156V20.3C29.6641 20.372 29.4281 20.408 29.2121 20.408C29.0841 20.408 28.9881 20.404 28.9241 20.396L28.5641 20.384H28.4201C28.3001 20.384 28.1841 20.392 28.0721 20.408V20.144L27.8321 20.168L27.8201 17.9C27.8041 16.892 27.7961 16.128 27.7961 15.608C27.7961 15.184 27.8041 14.612 27.8201 13.892C28.0121 13.916 28.1921 13.928 28.3601 13.928C28.4241 13.928 28.5281 13.92 28.6721 13.904C28.8241 13.88 29.0281 13.868 29.2841 13.868C29.5481 13.868 29.6801 13.916 29.6801 14.012V14.12ZM29.5601 14.012C29.5601 13.996 29.5121 13.988 29.4161 13.988C29.1521 13.988 28.9281 14 28.7441 14.024C28.5601 14.04 28.4321 14.048 28.3601 14.048H28.2161C28.1121 14.048 28.0201 14.04 27.9401 14.024C27.9241 14.272 27.9161 14.636 27.9161 15.116V15.848C27.9161 16.336 27.9241 17.044 27.9401 17.972L27.9521 20.036C28.0481 20.028 28.1801 20.024 28.3481 20.024L28.9961 20.036C29.1881 20.036 29.3761 20.012 29.5601 19.964V19.916C29.5601 19.492 29.5521 18.944 29.5361 18.272C29.5201 17.6 29.5121 17.076 29.5121 16.7C29.5121 16.404 29.5881 16.2 29.7401 16.088C29.9001 15.968 30.1321 15.908 30.4361 15.908C30.4841 15.908 30.5521 15.908 30.6401 15.908C30.7361 15.9 30.8441 15.908 30.9641 15.932C31.0921 15.948 31.2481 15.98 31.4321 16.028C31.4721 16.044 31.5121 16.06 31.5521 16.076C31.6001 16.084 31.6441 16.096 31.6841 16.112L31.7921 16.148C31.7841 16.06 31.7801 15.932 31.7801 15.764V15.32L31.7921 14.036C31.7921 14.02 31.7081 14.012 31.5401 14.012C31.2361 14.012 30.8761 14.056 30.4601 14.144C30.0521 14.224 29.7561 14.316 29.5721 14.42C29.5721 14.364 29.5681 14.324 29.5601 14.3C29.5601 14.276 29.5601 14.256 29.5601 14.24V14.012ZM13.2688 18.576H13.5088V19.296C13.5088 19.64 13.5168 20.172 13.5328 20.892C13.5568 21.444 13.5688 22.016 13.5688 22.608C13.5688 22.872 13.5648 23.068 13.5568 23.196L13.5448 23.784C13.5288 24.384 13.4928 24.884 13.4368 25.284C13.3808 25.676 13.2488 26.048 13.0408 26.4C12.8328 26.744 12.5128 26.996 12.0808 27.156H12.0928C11.7248 27.356 11.2568 27.456 10.6888 27.456C9.71283 27.456 9.01283 27.116 8.58883 26.436C8.17283 25.756 7.96483 24.912 7.96483 23.904L7.97683 23.448C8.09683 23.408 8.23283 23.384 8.38483 23.376C8.54483 23.368 8.70083 23.364 8.85283 23.364C9.34883 23.364 9.75683 23.4 10.0768 23.472V23.676L10.3168 23.712V23.88C10.3168 23.92 10.3248 24.04 10.3408 24.24C10.3568 24.44 10.4008 24.6 10.4728 24.72C10.5528 24.84 10.6608 24.9 10.7968 24.9C10.9488 24.9 11.0608 24.832 11.1328 24.696C11.2128 24.552 11.2648 24.376 11.2888 24.168C11.2568 23.232 11.2408 22.1 11.2408 20.772C11.2328 20.676 11.2288 20.528 11.2288 20.328C11.2288 20.136 11.2368 19.848 11.2528 19.464C11.2688 19.064 11.2768 18.764 11.2768 18.564V18.36L13.2688 18.336V18.576ZM11.3968 18.564C11.3728 19.308 11.3608 20.044 11.3608 20.772C11.3608 22.052 11.3768 23.184 11.4088 24.168C11.3848 24.408 11.3208 24.612 11.2168 24.78C11.1208 24.94 10.9808 25.02 10.7968 25.02C10.4928 25.02 10.2808 24.888 10.1608 24.624C10.0488 24.36 9.98083 24.032 9.95683 23.64V23.568C9.58083 23.512 9.21283 23.484 8.85283 23.484C8.56483 23.484 8.31283 23.504 8.09683 23.544C8.08883 23.632 8.08483 23.756 8.08483 23.916C8.08483 24.644 8.19683 25.3 8.42083 25.884C8.64483 26.468 9.02483 26.84 9.56083 27C9.88083 27.064 10.1768 27.096 10.4488 27.096C10.9608 27.096 11.4128 27 11.8048 26.808C12.2128 26.656 12.5128 26.412 12.7048 26.076C12.9048 25.74 13.0288 25.38 13.0768 24.996C13.1328 24.612 13.1688 24.128 13.1848 23.544C13.1848 23.32 13.1888 23.156 13.1968 23.052C13.2048 22.916 13.2048 22.8 13.1968 22.704C13.1968 22.6 13.1968 22.512 13.1968 22.44C13.1968 21.856 13.1848 21.284 13.1608 20.724C13.1448 19.972 13.1368 19.416 13.1368 19.056C13.1368 18.792 13.1408 18.592 13.1488 18.456L11.3968 18.48V18.564ZM14.0355 21.48C14.1555 21.224 14.3915 21.032 14.7435 20.904C15.1035 20.776 15.5075 20.712 15.9555 20.712C16.0195 20.72 16.1675 20.724 16.3995 20.724L16.6875 20.712C16.9915 20.712 17.2875 20.76 17.5755 20.856C17.8635 20.952 18.1035 21.092 18.2955 21.276H18.2835C18.3075 21.308 18.3435 21.352 18.3915 21.408C18.4395 21.456 18.4835 21.492 18.5235 21.516L18.5115 21.504C18.7275 21.648 18.8715 21.936 18.9435 22.368C19.0235 22.8 19.0635 23.336 19.0635 23.976C19.0635 24.544 19.0275 25.132 18.9555 25.74C18.8835 26.348 18.7835 26.724 18.6555 26.868C18.4875 27.108 18.2595 27.272 17.9715 27.36C17.6835 27.448 17.3475 27.492 16.9635 27.492C16.5555 27.492 16.2235 27.48 15.9675 27.456C15.7195 27.432 15.4715 27.364 15.2235 27.252C14.9835 27.148 14.7515 26.98 14.5275 26.748L14.4195 26.64C14.1715 26.408 14.0035 26.112 13.9155 25.752C13.8275 25.384 13.7835 24.956 13.7835 24.468V24.036L13.7955 23.628C13.7955 23.532 13.7915 23.44 13.7835 23.352C13.7755 23.264 13.7715 23.184 13.7715 23.112C13.7715 22.768 13.7795 22.508 13.7955 22.332C13.8115 22.156 13.8715 21.944 13.9755 21.696H13.9635C13.9715 21.648 13.9795 21.6 13.9875 21.552C14.0035 21.504 14.0195 21.472 14.0355 21.456V21.468L14.0235 21.504L14.0355 21.48ZM13.9035 23.604V24.492C13.9035 25.196 14.0195 25.78 14.2515 26.244C14.4915 26.7 14.9195 26.98 15.5355 27.084L16.0995 27.096C16.3715 27.112 16.5835 27.12 16.7355 27.12C17.1115 27.12 17.4315 27.08 17.6955 27C17.9595 26.92 18.1675 26.772 18.3195 26.556C18.4555 26.42 18.5435 26.116 18.5835 25.644C18.6315 25.172 18.6715 24.536 18.7035 23.736C18.7035 23.664 18.6955 23.408 18.6795 22.968C18.6635 22.52 18.6155 22.164 18.5355 21.9C18.4635 21.628 18.3555 21.448 18.2115 21.36C17.8515 21.008 17.3275 20.832 16.6395 20.832L16.1835 20.844C16.0795 20.844 15.9995 20.84 15.9435 20.832C15.5355 20.832 15.1595 20.892 14.8155 21.012C14.4715 21.132 14.2475 21.304 14.1435 21.528C14.0555 21.84 13.9915 22.116 13.9515 22.356C13.9115 22.596 13.8915 22.844 13.8915 23.1L13.9035 23.604ZM16.3635 22.644C16.9235 22.644 17.2035 23.06 17.2035 23.892C17.2035 24.236 17.1875 24.512 17.1555 24.72C17.1235 24.92 17.0395 25.084 16.9035 25.212C16.7675 25.34 16.5595 25.404 16.2795 25.404C16.0395 25.404 15.8435 25.352 15.6915 25.248C15.5395 25.144 15.4635 24.976 15.4635 24.744C15.4715 24.64 15.4755 24.456 15.4755 24.192C15.4755 23.824 15.4835 23.54 15.4995 23.34C15.5235 23.132 15.5715 23 15.6435 22.944C15.8035 22.744 16.0435 22.644 16.3635 22.644ZM15.9555 23.28C15.8915 23.32 15.8515 23.504 15.8355 23.832C15.8275 24.152 15.8235 24.54 15.8235 24.996C15.8235 25.124 15.8635 25.204 15.9435 25.236C16.0235 25.268 16.1355 25.284 16.2795 25.284C16.7675 25.284 17.0115 25.116 17.0115 24.78C17.0595 24.348 17.0835 24.036 17.0835 23.844C17.0835 23.58 17.0515 23.376 16.9875 23.232C16.9315 23.088 16.7955 23.016 16.5795 23.016C16.5315 23.016 16.4435 23.024 16.3155 23.04H16.3275C16.1755 23.08 16.0595 23.152 15.9795 23.256L15.9555 23.28ZM21.3824 19.416C21.3984 19.672 21.4064 19.892 21.4064 20.076C21.4064 20.244 21.4024 20.384 21.3944 20.496L21.3824 20.976C21.6224 20.896 21.9104 20.856 22.2464 20.856C23.0384 20.856 23.6384 21.104 24.0464 21.6C24.4544 22.096 24.6584 22.836 24.6584 23.82C24.6344 24.516 24.5664 25.112 24.4544 25.608C24.3424 26.096 24.1184 26.508 23.7824 26.844C23.4544 27.172 22.9664 27.336 22.3184 27.336C21.9024 27.336 21.5944 27.192 21.3944 26.904V27.132C21.3944 27.228 21.3544 27.292 21.2744 27.324C21.2024 27.356 21.0944 27.372 20.9504 27.372C20.6384 27.372 20.4024 27.368 20.2424 27.36L19.5224 27.348L19.5104 27.108H19.2824C19.2744 26.796 19.2704 26.272 19.2704 25.536C19.2704 24.912 19.2744 24.356 19.2824 23.868C19.2904 23.38 19.2984 22.96 19.3064 22.608C19.3384 21.184 19.3544 20.096 19.3544 19.344V18.444C19.5624 18.404 19.8344 18.384 20.1704 18.384C20.4024 18.384 20.6144 18.404 20.8064 18.444C21.0064 18.484 21.1064 18.524 21.1064 18.564V18.696C21.2664 18.736 21.3464 18.772 21.3464 18.804V18.936L21.3824 19.416ZM20.9864 18.564C20.9864 18.548 20.8984 18.536 20.7224 18.528C20.5544 18.512 20.3704 18.504 20.1704 18.504C19.8744 18.504 19.6424 18.52 19.4744 18.552V19.344C19.4744 20.112 19.4584 21.216 19.4264 22.656C19.4184 23 19.4104 23.424 19.4024 23.928C19.3944 24.432 19.3904 25.012 19.3904 25.668C19.3904 26.268 19.3944 26.708 19.4024 26.988C19.6584 26.988 19.8544 26.992 19.9904 27L20.6384 27.012C20.9024 27.012 21.0344 26.972 21.0344 26.892C21.0344 26.804 21.0384 26.7 21.0464 26.58C21.0544 26.46 21.0784 26.4 21.1184 26.4C21.1264 26.4 21.1424 26.416 21.1664 26.448C21.3344 26.8 21.6304 26.976 22.0544 26.976C22.6944 26.976 23.1744 26.82 23.4944 26.508C23.8144 26.196 24.0224 25.808 24.1184 25.344C24.2144 24.88 24.2744 24.292 24.2984 23.58C24.2984 22.972 24.2184 22.444 24.0584 21.996C23.9064 21.548 23.6624 21.264 23.3264 21.144C23.0544 21.032 22.6944 20.976 22.2464 20.976C21.9344 20.976 21.6544 21.008 21.4064 21.072C21.1584 21.136 21.0304 21.212 21.0224 21.3C21.0304 21.052 21.0344 20.748 21.0344 20.388V19.836C21.0344 19.508 21.0264 19.268 21.0104 19.116L20.9864 18.696V18.564ZM22.9304 23.916C22.9304 24.34 22.8304 24.708 22.6304 25.02C22.4304 25.332 22.1664 25.488 21.8384 25.488C21.5824 25.488 21.3904 25.42 21.2624 25.284C21.1424 25.14 21.0624 24.948 21.0224 24.708C20.9904 24.468 20.9744 24.148 20.9744 23.748C20.9744 23.3 20.9864 22.988 21.0104 22.812C21.0424 22.636 21.1064 22.52 21.2024 22.464C21.2984 22.4 21.4664 22.368 21.7064 22.368C22.3784 22.368 22.7584 22.652 22.8464 23.22C22.9024 23.372 22.9304 23.604 22.9304 23.916ZM22.7264 23.232C22.6864 23.032 22.6064 22.9 22.4864 22.836C22.3664 22.764 22.1864 22.728 21.9464 22.728C21.7464 22.728 21.6064 22.756 21.5264 22.812C21.4464 22.868 21.3944 22.976 21.3704 23.136C21.3464 23.296 21.3344 23.58 21.3344 23.988V24.36C21.3344 24.696 21.3624 24.948 21.4184 25.116C21.4824 25.284 21.6224 25.368 21.8384 25.368C22.1344 25.368 22.3704 25.224 22.5464 24.936C22.7224 24.648 22.8104 24.308 22.8104 23.916C22.8104 23.892 22.8104 23.804 22.8104 23.652C22.8104 23.5 22.7864 23.368 22.7384 23.256L22.7264 23.232ZM30.0448 23.208C29.7648 23.256 29.4568 23.28 29.1208 23.28C28.8408 23.28 28.5208 23.248 28.1608 23.184L28.1728 23.088C28.1728 23.04 28.1528 23.008 28.1128 22.992C28.0728 22.968 28.0328 22.956 27.9928 22.956C27.9528 22.948 27.9288 22.944 27.9208 22.944L27.9328 22.848C27.9328 22.72 27.8928 22.632 27.8128 22.584C27.7328 22.528 27.6288 22.488 27.5008 22.464C27.3568 22.504 27.2448 22.564 27.1648 22.644C27.0848 22.724 27.0448 22.812 27.0448 22.908C27.0448 23.06 27.1248 23.168 27.2848 23.232L27.2608 23.22C28.1568 23.364 28.8488 23.596 29.3368 23.916C29.8248 24.236 30.0688 24.744 30.0688 25.44C30.0688 26.176 29.8288 26.712 29.3488 27.048C28.8688 27.384 28.2368 27.552 27.4528 27.552C26.8928 27.552 26.3928 27.444 25.9528 27.228C25.5128 27.02 25.1688 26.736 24.9208 26.376C24.6808 26.008 24.5608 25.608 24.5608 25.176V25.008C24.8088 24.976 25.0808 24.96 25.3768 24.96L26.0008 24.972C26.1288 24.98 26.3168 24.984 26.5648 24.984C26.5648 25.048 26.5848 25.128 26.6248 25.224H26.8048C26.8048 25.504 26.9848 25.644 27.3448 25.644C27.6728 25.644 27.8368 25.484 27.8368 25.164C27.8368 25.044 27.7728 24.96 27.6448 24.912C27.5248 24.856 27.3288 24.8 27.0568 24.744C26.7128 24.68 26.4488 24.608 26.2648 24.528H26.2768C25.7888 24.36 25.4008 24.088 25.1128 23.712C24.8248 23.328 24.6808 22.932 24.6808 22.524C24.6808 22.148 24.8008 21.792 25.0408 21.456C25.2888 21.12 25.6128 20.892 26.0128 20.772C26.2848 20.692 26.7008 20.652 27.2608 20.652C27.7968 20.652 28.2368 20.692 28.5808 20.772C28.9248 20.852 29.2048 21.028 29.4208 21.3C29.9008 21.692 30.1408 22.288 30.1408 23.088L30.0448 23.208ZM28.7368 20.916C28.3048 20.82 27.8128 20.772 27.2608 20.772C25.6208 20.772 24.8008 21.356 24.8008 22.524C24.8008 22.884 24.9088 23.216 25.1248 23.52C25.3408 23.816 25.6568 24.036 26.0728 24.18C26.2648 24.268 26.5688 24.352 26.9848 24.432C27.3288 24.512 27.5768 24.592 27.7288 24.672C27.8808 24.752 27.9568 24.888 27.9568 25.08C27.9568 25.32 27.9048 25.496 27.8008 25.608C27.6968 25.712 27.5448 25.764 27.3448 25.764C27.1208 25.764 26.9208 25.704 26.7448 25.584C26.5688 25.464 26.4728 25.304 26.4568 25.104L25.0768 25.092C24.8928 25.092 24.7608 25.1 24.6808 25.116V25.176C24.6808 25.792 24.9128 26.284 25.3768 26.652C25.8408 27.012 26.4528 27.192 27.2128 27.192C27.9408 27.192 28.5368 27.044 29.0008 26.748C29.4648 26.444 29.6968 25.928 29.6968 25.2C29.6968 24.784 29.6008 24.452 29.4088 24.204C29.2168 23.956 28.9488 23.772 28.6048 23.652C28.2688 23.532 27.8168 23.428 27.2488 23.34C27.0648 23.276 26.9248 23.184 26.8288 23.064C26.7328 22.944 26.6848 22.816 26.6848 22.68C26.6848 22.544 26.7368 22.416 26.8408 22.296C26.9528 22.168 27.1048 22.104 27.2968 22.104C27.4808 22.104 27.6568 22.172 27.8248 22.308C27.9928 22.444 28.0768 22.592 28.0768 22.752C28.0768 22.8 28.0728 22.832 28.0648 22.848C28.3128 22.896 28.5848 22.92 28.8808 22.92C29.2088 22.92 29.5088 22.896 29.7808 22.848C29.7808 22.392 29.6968 21.996 29.5288 21.66C29.3608 21.316 29.0968 21.068 28.7368 20.916Z" fill="white"/>
</svg>
